<?xml version="1.0" encoding="utf-8"?>
<!-- Generator: Adobe Illustrator 16.0.0, SVG Export Plug-In . SVG Version: 6.00 Build 0)  -->
<!DOCTYPE svg PUBLIC "-//W3C//DTD SVG 1.1//EN" "http://www.w3.org/Graphics/SVG/1.1/DTD/svg11.dtd">
<svg version="1.1" xmlns="http://www.w3.org/2000/svg" xmlns:xlink="http://www.w3.org/1999/xlink" x="0px" y="0px" width="132px"
	 height="100px" viewBox="0 0 132 100" enable-background="new 0 0 132 100" xml:space="preserve">
<g id="Layer_1">
</g>
<g id="Layer_2">
	<g>
		<path d="M51.387,46.953c1.007-0.539,3.035-1.758,6.082-3.656c0.891-0.563,3.316-1.957,7.277-4.184
			c1.617-0.891,3.679-1.91,6.188-3.059C72.457,35.352,73.5,35,74.063,35c0.328,0,0.645,0.129,0.949,0.387
			c0.352,0.352,0.527,0.797,0.527,1.336c0,0.656-0.293,1.184-0.879,1.582c-0.281,0.211-1.008,0.504-2.18,0.879
			c-7.523,2.93-13.77,6.504-18.738,10.723c-0.68,2.531-1.208,5.004-1.582,7.418C51.387,62.48,51,66.829,51,70.367
			c0,1.266,0.158,2.221,0.475,2.865c0.316,0.645,0.791,0.967,1.424,0.967c1.242,0,3.714-2.613,7.418-7.84
			c0.703-0.984,1.266-1.477,1.688-1.477c0.539,0,0.809,0.329,0.809,0.984c0,0.938-1.02,2.883-3.059,5.836
			c-2.93,4.313-5.602,6.469-8.016,6.469c-2.016,0-3.352-1.078-4.008-3.234c-0.422-1.336-0.633-3.023-0.633-5.063
			c0-4.078,0.515-8.425,1.547-13.043c1.031-4.641,1.652-7.523,1.863-8.648c-1.313,2.414-3.762,6.527-7.348,12.34
			c-4.289,7.406-6.855,13.301-7.699,17.684c-0.329,1.43-0.984,2.145-1.969,2.145c-0.656,0-1.16-0.305-1.512-0.914
			c-0.188-0.352-0.281-0.796-0.281-1.336c0-1.828,0.949-4.852,2.848-9.07c1.078-2.367,2.554-5.296,4.43-8.789
			c0.703-1.289,2.273-3.844,4.711-7.664c5.344-8.46,8.707-14.625,10.09-18.492c0.515-1.383,0.891-2.238,1.125-2.566
			c0.422-0.539,0.937-0.809,1.547-0.809c0.328,0,0.621,0.105,0.879,0.316c0.352,0.305,0.527,0.703,0.527,1.195
			C57.855,34.262,55.699,39.172,51.387,46.953z"/>
		<path d="M90.34,37.25c-1.219,1.359-2.836,3.609-4.852,6.75c-2.039,3.188-3.504,5.648-4.395,7.383
			c5.063-1.007,8.566-1.512,10.512-1.512c0.938,0,1.652,0.094,2.145,0.281c0.563,0.188,0.844,0.621,0.844,1.301
			c0,1.454-0.82,2.18-2.461,2.18c-0.094,0-0.281,0-0.563,0c-0.703-0.023-1.219-0.035-1.547-0.035c-2.32,0-6.176,0.762-11.566,2.285
			c-3.422,5.883-6.434,12.915-9.035,21.094c-0.352,1.243-0.902,1.863-1.652,1.863c-0.656,0-1.208-0.363-1.652-1.09
			c-0.352-0.539-0.527-1.078-0.527-1.617c0-0.609,0.645-2.672,1.934-6.188c2.132-5.789,5.18-12,9.141-18.633
			c2.508-4.148,5.261-8.543,8.262-13.184c-0.797-0.117-1.195-0.563-1.195-1.336c0-1.148,1.113-2.027,3.34-2.637
			c3.094-0.867,6.105-1.535,9.035-2.004c3.328-0.539,5.859-0.809,7.594-0.809c2.742,0,4.113,0.691,4.113,2.074
			c0,0.703-0.316,1.278-0.949,1.723c-0.258,0.188-0.551,0.281-0.879,0.281c-0.281,0-0.68-0.035-1.195-0.105
			c-0.797-0.117-1.488-0.176-2.074-0.176c-1.266,0-3.398,0.246-6.398,0.738C94.16,36.208,92.168,36.665,90.34,37.25z"/>
	</g>
</g>
</svg>
